HIERARCHY
ROOT RootJoint
{
    OFFSET   0.000000   0.000000   0.000000
    CHANNELS 6 Xposition Yposition Zposition Xrotation Yrotation Zrotation
    JOINT pelvis_lowerback
    {
        OFFSET   0.000000   0.093605   0.000000
        CHANNELS 3 Xrotation Yrotation Zrotation
        JOINT lowerback_torso
        {
            OFFSET   0.000000   0.100000   0.000000
            CHANNELS 3 Xrotation Yrotation Zrotation
            JOINT torso_head
            {
                OFFSET   0.000000   0.282350   0.000000
                CHANNELS 3 Xrotation Yrotation Zrotation
                End Site
                {
                    OFFSET   0.000000   0.192650   0.000000
                }
            }
            JOINT rTorso_Clavicle
            {
                OFFSET  -0.001000   0.157500   0.000000
                CHANNELS 3 Xrotation Yrotation Zrotation
                JOINT rShoulder
                {
                    OFFSET  -0.117647   0.000000   0.000000
                    CHANNELS 3 Xrotation Yrotation Zrotation
                    JOINT rElbow
                    {
                        OFFSET  -0.245000   0.000000   0.000000
                        CHANNELS 3 Xrotation Yrotation Zrotation
                        JOINT rWrist
                        {
                            OFFSET  -0.240000   0.000000   0.000000
                            CHANNELS 3 Xrotation Yrotation Zrotation
                            End Site
                            {
                                OFFSET  -0.116353  -0.002500   0.000000
                            }
                        }
                    }
                }
            }
            JOINT lTorso_Clavicle
            {
                OFFSET   0.001000   0.157500   0.000000
                CHANNELS 3 Xrotation Yrotation Zrotation
                JOINT lShoulder
                {
                    OFFSET   0.117647   0.000000   0.000000
                    CHANNELS 3 Xrotation Yrotation Zrotation
                    JOINT lElbow
                    {
                        OFFSET   0.245000   0.000000   0.000000
                        CHANNELS 3 Xrotation Yrotation Zrotation
                        JOINT lWrist
                        {
                            OFFSET   0.240000   0.000000   0.000000
                            CHANNELS 3 Xrotation Yrotation Zrotation
                            End Site
                            {
                                OFFSET   0.116353  -0.002500   0.000000
                            }
                        }
                    }
                }
            }
        }
    }
    JOINT rHip
    {
        OFFSET  -0.100000  -0.051395   0.000000
        CHANNELS 3 Xrotation Yrotation Zrotation
        JOINT rKnee
        {
            OFFSET   0.000000  -0.410000   0.000000
            CHANNELS 3 Xrotation Yrotation Zrotation
            JOINT rAnkle
            {
                OFFSET   0.000000  -0.390000   0.000000
                CHANNELS 3 Xrotation Yrotation Zrotation
                JOINT rToeJoint
                {
                    OFFSET   0.000000  -0.050000   0.130000
                    CHANNELS 3 Xrotation Yrotation Zrotation
                    End Site
                    {
                        OFFSET  -0.010000   0.002000   0.060000
                    }
                }
            }
        }
    }
    JOINT lHip
    {
        OFFSET   0.100000  -0.051395   0.000000
        CHANNELS 3 Xrotation Yrotation Zrotation
        JOINT lKnee
        {
            OFFSET   0.000000  -0.410000   0.000000
            CHANNELS 3 Xrotation Yrotation Zrotation
            JOINT lAnkle
            {
                OFFSET   0.000000  -0.390000   0.000000
                CHANNELS 3 Xrotation Yrotation Zrotation
                JOINT lToeJoint
                {
                    OFFSET   0.000000  -0.050000   0.130000
                    CHANNELS 3 Xrotation Yrotation Zrotation
                    End Site
                    {
                        OFFSET   0.010000   0.002000   0.060000
                    }
                }
            }
        }
    }
}
MOTION
Frames: 11
Frame Time:   0.008333
 -2.376719   0.925631   3.975860   0.000000   0.000000   0.000000   0.000000   0.000000   0.000000   0.000000   0.000000   0.000000   0.000000   0.000000   0.000000   0.000000   0.000000   0.000000   0.000000   0.000000   0.000000   0.000000   0.000000   0.000000   0.000000   0.000000   0.000000   0.000000   0.000000   0.000000   0.000000   0.000000   0.000000   0.000000   0.000000   0.000000   0.000000   0.000000   0.000000   0.000000   0.000000   0.000000   0.000000   0.000000   0.000000   0.000000   0.000000   0.000000   0.000000   0.000000   0.000000   0.000000   0.000000   0.000000   0.000000   0.000000   0.000000   0.000000   0.000000   0.000000   0.000000   0.000000   0.000000
 -2.377203   0.925462   3.972620  -0.216039   0.341859  -0.447095   1.064504  -0.301237   0.252015  -0.322437  -0.052387   0.426200  -0.104137  -0.149922   0.001680  -0.618265  -0.215233  -0.008840  -1.864695   0.254168   0.688250   0.017135   2.289769   0.038821   0.036516  -1.343249  -1.370535  -0.136667   0.096366  -0.237079   0.727741  -0.092351  -1.712723   0.052503  -3.415701   0.034793  -0.005399   1.710967   2.048510  -1.424576  -1.115387   0.291861   3.699252   0.003580  -0.024807  -1.365861   0.429241   0.273213   0.047990  -0.000055  -0.000140  -1.079608   0.387187   0.894538   3.298136  -0.012204   0.021728  -3.695821   0.770688   0.057077   0.088864  -0.000399   0.001163
 -2.377654   0.926085   3.968469  -0.753662   1.036303  -0.819913   2.392459  -0.763439   0.466716  -0.347819  -0.262395   0.824106  -0.148627  -0.297154   0.054055  -1.215546  -0.212739   0.358641  -3.632779   0.673768   1.609467   0.039757   4.559249   0.062528   0.005545  -1.862815  -2.443276  -0.258638  -0.166585  -1.023262   1.388366  -0.517023  -3.739608   0.130003  -7.015232   0.072236   0.018505   2.278549   3.596944  -2.818713  -2.219716   0.256612   7.756157   0.011508  -0.035066  -2.617093   0.814665   0.530575   0.151233   0.000000  -0.000135  -2.238121   0.887073   1.661451   6.642396  -0.016723   0.054978  -7.106328   1.603866  -0.015634   0.105989  -0.000363   0.001240
 -2.378595   0.926177   3.964129  -1.419378   1.648119  -1.297572   3.752103  -1.183901   0.728369  -0.225944  -0.480463   1.216720  -0.164785  -0.431310   0.127231  -1.770549  -0.022587   0.912673  -5.292503   1.184526   2.660783   0.059439   6.740125   0.076694  -0.016394  -1.950287  -3.066730  -0.380745  -0.646413  -2.042644   1.974615  -1.122793  -5.857721   0.212508 -10.690522   0.105184   0.063512   2.266949   4.553779  -4.244819  -3.236825   0.163516  11.768914   0.020050  -0.044572  -3.783808   1.170446   0.779019   0.248389   0.000126  -0.000169  -3.216638   1.250061   2.896681  10.196160  -0.028077   0.080475 -10.339395   2.290909   0.135484   0.048715   0.000148   0.000133
 -2.379782   0.925585   3.959835  -2.119879   2.182082  -1.742844   5.081404  -1.595749   0.930656  -0.050604  -0.705139   1.544620  -0.175829  -0.555608   0.202549  -2.289149   0.287869   1.588040  -6.851674   1.730392   3.780693   0.073958   8.816018   0.084790  -0.027289  -1.788918  -3.387401  -0.513529  -1.260369  -3.190642   2.486548  -1.839726  -7.972505   0.289045 -14.305581   0.131247   0.129424   1.901739   5.122290  -5.696620  -4.178661  -0.122948  15.508802   0.028263  -0.053519  -4.874079   1.495755   1.018115   0.333927   0.000291  -0.000245  -4.061045   1.558457   4.367188  13.792300  -0.042103   0.101572 -13.355751   2.930024   0.318471   0.007272   0.000535  -0.000463
 -2.381099   0.924198   3.955727  -2.826437   2.628734  -2.137629   6.363463  -2.003738   1.069476   0.145206  -0.937661   1.793723  -0.188295  -0.671321   0.272545  -2.775997   0.668276   2.321763  -8.316852   2.275113   4.923987   0.082646  10.779387   0.088767  -0.030612  -1.482184  -3.507763  -0.662165  -1.955573  -4.407383   2.927618  -2.623875 -10.043905   0.351340 -17.717678   0.149654   0.211164   1.302030   5.417307  -7.177528  -5.039210  -0.593693  18.962561   0.035047  -0.062094  -5.895070   1.792759   1.247043   0.403730   0.000439  -0.000340  -4.792104   1.819274   5.994641  17.407450  -0.056765   0.119341 -16.172702   3.521910   0.525227  -0.026061   0.000825  -0.000787
 -2.382472   0.921936   3.951900  -3.528867   2.984425  -2.483769   7.589975  -2.407982   1.149360   0.348515  -1.175912   1.965273  -0.202655  -0.779552   0.336073  -3.234295   1.078755   3.069685  -9.693510   2.794232   6.057181   0.085793  12.627383   0.089930  -0.029812  -1.097337  -3.503396  -0.825866  -2.685701  -5.654617   3.304990  -3.434803 -12.050094   0.398590 -20.924276   0.161893   0.296471   0.594962   5.512761  -8.682629  -5.815868  -1.216678  22.146875   0.039763  -0.070118  -6.851222   2.064123   1.465503   0.459972   0.000547  -0.000434  -5.417902   2.034948   7.733365  21.038852  -0.070868   0.134550 -18.804357   4.067513   0.749217  -0.053697   0.001029  -0.000943
 -2.383414   0.918377   3.947388  -3.665117   2.887662  -2.678839   8.548586  -2.548369   1.092540   0.129366  -1.223670   2.022898  -0.262779  -0.951662   0.532732  -3.523437   1.330450   3.634398 -11.033836   3.384723   6.955356   0.078815  14.219979   0.086913  -0.097402  -0.740891  -3.051145  -0.802882  -3.191079  -6.452691   3.905811  -4.587917 -14.052139   0.447426 -24.509230   0.190717   0.307734   0.079785   5.023803 -11.158121  -6.614868  -2.285720  25.204669   0.042483  -0.092000  -7.030027   2.118307   1.719084   0.170370  -0.000666   0.002547  -6.604496   2.505242   9.430219  24.703712  -0.083584   0.146607 -20.746237   4.666312   0.985284  -0.196952   0.002919  -0.002283
 -2.384083   0.913654   3.942994  -3.787164   2.641219  -2.825979   9.503983  -2.663744   1.017264  -0.094260  -1.248185   2.033993  -0.331772  -1.110333   0.721940  -3.808314   1.602180   4.029470 -12.301465   3.952488   7.714847   0.068276  15.713894   0.082519  -0.163550  -0.402082  -2.712127  -0.797676  -3.698464  -7.118082   4.423822  -5.724606 -15.864133   0.475093 -27.891097   0.212597   0.345468  -0.638676   4.497506 -13.735221  -7.301141  -3.557665  27.940248   0.043073  -0.109992  -7.191611   2.158960   1.952898  -0.047414  -0.001533   0.004532  -7.680421   2.906929  11.192975  28.365366  -0.096196   0.154629 -22.556617   5.219226   1.227676  -0.291555   0.003816  -0.002662
 -2.384555   0.907831   3.938911  -3.921104   2.328280  -2.941978  10.425887  -2.793059   0.929478  -0.289924  -1.286311   2.013175  -0.390378  -1.258783   0.899167  -4.086757   1.873882   4.307727 -13.498671   4.491811   8.372765   0.056437  17.116964   0.077601  -0.223148  -0.040113  -2.512227  -0.811936  -4.201459  -7.692765   4.866622  -6.820764 -17.514039   0.487042 -31.058949   0.227765   0.387922  -1.404626   4.045781 -16.333308  -7.856891  -4.954947  30.410675   0.042135  -0.122307  -7.345511   2.193017   2.169887  -0.250520  -0.002256   0.006053  -8.592191   3.243463  13.014354  31.910799  -0.106889   0.160594 -24.247879   5.728138   1.472830  -0.373610   0.004407  -0.002765
 -2.384877   0.900964   3.935217  -4.060849   1.999535  -3.032650  11.297057  -2.949979   0.831578  -0.467898  -1.351935   1.967914  -0.439358  -1.398426   1.064263  -4.354919   2.125711   4.505519 -14.626678   4.991379   8.952483   0.044576  18.430307   0.072605  -0.277458   0.330983  -2.419456  -0.841711  -4.691966  -8.201846   5.244863  -7.869384 -19.027919   0.487615 -34.023034   0.236942   0.429347  -2.174101   3.661013 -18.920514  -8.284442  -6.430461  32.654288   0.040234  -0.129126  -7.491703   2.222154   2.371459  -0.440840  -0.002823   0.007115  -9.345680   3.526635  14.872187  35.265441  -0.114295   0.165242 -25.828455   6.196337   1.717821  -0.446855   0.004777  -0.002738
